<?xml version="1.0" encoding="iso-8859-1"?>
<!-- Generator: Adobe Illustrator 19.0.0, SVG Export Plug-In . SVG Version: 6.00 Build 0)  -->
<svg version="1.1" id="Capa_1" xmlns="http://www.w3.org/2000/svg" xmlns:xlink="http://www.w3.org/1999/xlink" x="0px" y="0px"
	 viewBox="0 0 512 512" style="enable-background:new 0 0 512 512;" xml:space="preserve">
<polygon style="fill:#64DDE0;" points="195.506,0 195.506,83.997 225.506,83.997 225.506,83.956 300.881,83.751 315.881,83.751 
	315.881,0 "/>
<polygon style="fill:#00C2C7;" points="255.501,0 255.501,83.997 270.549,83.997 270.549,83.956 308.357,83.751 315.881,83.751 
	315.881,0 "/>
<path style="fill:#E8F2F4;" d="M256.499,60.25h-0.998c-74.271,0-134.694,60.424-134.694,134.694V512h270.387V194.944
	C391.193,120.674,330.77,60.25,256.499,60.25z"/>
<path style="fill:#D1DFE1;" d="M255.694,512h135.499V194.944c0-74.271-60.424-134.694-134.694-134.694h-0.998L255.694,512z"/>
<path style="fill:#64DDE0;" d="M255.623,180.945c-41.439,0-75.152,33.713-75.152,75.152s33.713,75.152,75.152,75.152
	s75.152-33.713,75.152-75.152S297.062,180.945,255.623,180.945z"/>
<path style="fill:#00C2C7;" d="M255.623,331.25c41.439,0,75.152-33.713,75.152-75.152s-33.713-75.152-75.152-75.152L255.623,331.25
	L255.623,331.25z"/>
<rect x="195.44" y="361.5" style="fill:#9CADB3;" width="120.5" height="30"/>
<rect x="255.64" y="361.5" style="fill:#3C545A;" width="60.31" height="30"/>
<g>
</g>
<g>
</g>
<g>
</g>
<g>
</g>
<g>
</g>
<g>
</g>
<g>
</g>
<g>
</g>
<g>
</g>
<g>
</g>
<g>
</g>
<g>
</g>
<g>
</g>
<g>
</g>
<g>
</g>
</svg>
